<mxfile host="Electron" modified="2024-03-26T11:36:22.800Z" agent="Mozilla/5.0 (Windows NT 10.0; Win64; x64) AppleWebKit/537.36 (KHTML, like Gecko) draw.io/24.1.0 Chrome/120.0.6099.109 Electron/28.1.0 Safari/537.36" etag="pVW9wf9bsNEZYq2epNKo" version="24.1.0" type="device">
  <diagram id="IPKWZPLMqu9QNmLx4YO5" name="Page-1">
    <mxGraphModel dx="3214" dy="2177" grid="1" gridSize="10" guides="1" tooltips="1" connect="1" arrows="1" fold="1" page="1" pageScale="1" pageWidth="1654" pageHeight="1169" math="0" shadow="0">
      <root>
        <mxCell id="0" />
        <mxCell id="1" parent="0" />
        <mxCell id="NFOtpFjD8nfBpZQESPc6-1" value="" style="rounded=0;whiteSpace=wrap;html=1;fillColor=#f5f5f5;fontColor=#333333;strokeColor=#666666;" parent="1" vertex="1">
          <mxGeometry x="-1601" y="-30" width="621" height="560" as="geometry" />
        </mxCell>
        <mxCell id="NFOtpFjD8nfBpZQESPc6-7" value="&lt;font style=&quot;font-size: 18px&quot;&gt;Device control&lt;/font&gt;" style="rounded=0;whiteSpace=wrap;html=1;" parent="1" vertex="1">
          <mxGeometry x="-1355" y="50" width="120" height="60" as="geometry" />
        </mxCell>
        <mxCell id="NFOtpFjD8nfBpZQESPc6-12" value="&lt;font style=&quot;font-size: 18px&quot;&gt;I2C&lt;/font&gt;" style="whiteSpace=wrap;html=1;rounded=0;fillColor=#e6d0de;gradientColor=#d5739d;strokeColor=#996185;" parent="1" vertex="1">
          <mxGeometry x="-1500" y="-9" width="120" height="60" as="geometry" />
        </mxCell>
        <mxCell id="NFOtpFjD8nfBpZQESPc6-13" value="" style="endArrow=classic;startArrow=classic;html=1;rounded=0;exitX=1;exitY=0.5;exitDx=0;exitDy=0;entryX=0.5;entryY=0;entryDx=0;entryDy=0;" parent="1" source="NFOtpFjD8nfBpZQESPc6-12" target="NFOtpFjD8nfBpZQESPc6-7" edge="1">
          <mxGeometry width="50" height="50" relative="1" as="geometry">
            <mxPoint x="-1100" y="280" as="sourcePoint" />
            <mxPoint x="-1050" y="230" as="targetPoint" />
            <Array as="points">
              <mxPoint x="-1295" y="20" />
            </Array>
          </mxGeometry>
        </mxCell>
        <mxCell id="NFOtpFjD8nfBpZQESPc6-15" value="&lt;font style=&quot;font-size: 18px&quot;&gt;response&lt;/font&gt;" style="edgeStyle=orthogonalEdgeStyle;rounded=0;orthogonalLoop=1;jettySize=auto;html=1;exitX=0.35;exitY=0;exitDx=0;exitDy=0;exitPerimeter=0;endArrow=classic;endFill=1;entryX=0.5;entryY=1;entryDx=0;entryDy=0;" parent="1" source="NFOtpFjD8nfBpZQESPc6-16" target="FM-86OKw0KhcrfEcP8aE-10" edge="1">
          <mxGeometry x="0.7292" y="-40" relative="1" as="geometry">
            <mxPoint x="-1420" y="190" as="targetPoint" />
            <Array as="points">
              <mxPoint x="-1420" y="241" />
            </Array>
            <mxPoint y="1" as="offset" />
          </mxGeometry>
        </mxCell>
        <mxCell id="NFOtpFjD8nfBpZQESPc6-18" value="" style="edgeStyle=orthogonalEdgeStyle;rounded=0;orthogonalLoop=1;jettySize=auto;html=1;startArrow=none;startFill=0;endArrow=classic;endFill=1;entryX=0.5;entryY=0;entryDx=0;entryDy=0;entryPerimeter=0;" parent="1" source="NFOtpFjD8nfBpZQESPc6-19" target="NFOtpFjD8nfBpZQESPc6-16" edge="1">
          <mxGeometry relative="1" as="geometry">
            <mxPoint x="-1310" y="200" as="targetPoint" />
          </mxGeometry>
        </mxCell>
        <mxCell id="NFOtpFjD8nfBpZQESPc6-19" value="" style="shape=cylinder3;whiteSpace=wrap;html=1;boundedLbl=1;backgroundOutline=1;size=4;fillColor=#dae8fc;strokeColor=#6c8ebf;gradientColor=#7ea6e0;" parent="1" vertex="1">
          <mxGeometry x="-1495" y="153" width="20" height="40" as="geometry" />
        </mxCell>
        <mxCell id="NFOtpFjD8nfBpZQESPc6-20" value="" style="endArrow=classic;html=1;rounded=0;exitX=0;exitY=0.25;exitDx=0;exitDy=0;entryX=0.5;entryY=0;entryDx=0;entryDy=0;startArrow=none;startFill=0;endFill=1;" parent="1" source="NFOtpFjD8nfBpZQESPc6-7" target="NFOtpFjD8nfBpZQESPc6-19" edge="1">
          <mxGeometry width="50" height="50" relative="1" as="geometry">
            <mxPoint x="-1130" y="280" as="sourcePoint" />
            <mxPoint x="-1310" y="120" as="targetPoint" />
            <Array as="points">
              <mxPoint x="-1485" y="65" />
            </Array>
          </mxGeometry>
        </mxCell>
        <mxCell id="NFOtpFjD8nfBpZQESPc6-21" value="&lt;font style=&quot;font-size: 18px&quot;&gt;Cmd queue&lt;/font&gt;" style="text;html=1;strokeColor=none;fillColor=none;align=left;verticalAlign=middle;whiteSpace=wrap;rounded=0;" parent="1" vertex="1">
          <mxGeometry x="-1555" y="152" width="60" height="40" as="geometry" />
        </mxCell>
        <mxCell id="NFOtpFjD8nfBpZQESPc6-26" value="&lt;font style=&quot;font-size: 18px&quot;&gt;Tile 0&lt;/font&gt;" style="text;html=1;strokeColor=none;fillColor=none;align=center;verticalAlign=middle;whiteSpace=wrap;rounded=0;fontSize=16;" parent="1" vertex="1">
          <mxGeometry x="-1400" y="-72" width="60" height="30" as="geometry" />
        </mxCell>
        <mxCell id="NFOtpFjD8nfBpZQESPc6-27" value="&lt;font style=&quot;font-size: 18px&quot;&gt;Tile 1&lt;/font&gt;" style="text;html=1;strokeColor=none;fillColor=none;align=center;verticalAlign=middle;whiteSpace=wrap;rounded=0;fontSize=16;" parent="1" vertex="1">
          <mxGeometry x="-1106" y="-72" width="60" height="30" as="geometry" />
        </mxCell>
        <mxCell id="NFOtpFjD8nfBpZQESPc6-35" value="" style="endArrow=none;html=1;rounded=0;" parent="1" edge="1">
          <mxGeometry width="50" height="50" relative="1" as="geometry">
            <mxPoint x="-1184" y="-36" as="sourcePoint" />
            <mxPoint x="-1184" y="540" as="targetPoint" />
          </mxGeometry>
        </mxCell>
        <mxCell id="NFOtpFjD8nfBpZQESPc6-81" style="edgeStyle=orthogonalEdgeStyle;rounded=0;orthogonalLoop=1;jettySize=auto;html=1;entryX=0;entryY=0.75;entryDx=0;entryDy=0;startArrow=none;startFill=0;endArrow=classic;endFill=1;exitX=0.5;exitY=0;exitDx=0;exitDy=0;" parent="1" source="FM-86OKw0KhcrfEcP8aE-10" target="NFOtpFjD8nfBpZQESPc6-7" edge="1">
          <mxGeometry relative="1" as="geometry">
            <mxPoint x="-1420" y="120" as="sourcePoint" />
            <Array as="points">
              <mxPoint x="-1420" y="95" />
            </Array>
          </mxGeometry>
        </mxCell>
        <mxCell id="NFOtpFjD8nfBpZQESPc6-87" value="&lt;font style=&quot;font-size: 18px&quot;&gt;Gateway&lt;br&gt;queue&lt;/font&gt;" style="text;html=1;align=left;verticalAlign=middle;resizable=0;points=[];autosize=1;strokeColor=none;fillColor=none;" parent="1" vertex="1">
          <mxGeometry x="-1406" y="152" width="90" height="40" as="geometry" />
        </mxCell>
        <mxCell id="FM-86OKw0KhcrfEcP8aE-7" value="" style="group" parent="1" vertex="1" connectable="0">
          <mxGeometry x="-1580" y="240.5" width="190" height="88.5" as="geometry" />
        </mxCell>
        <mxCell id="NFOtpFjD8nfBpZQESPc6-16" value="" style="whiteSpace=wrap;html=1;rounded=0;points=[[0,0,0,0,0],[0,0.25,0,0,0],[0,0.5,0,0,0],[0,0.75,0,0,0],[0,1,0,0,0],[0.25,0,0,0,0],[0.25,1,0,0,0],[0.38,1,0,0,0],[0.5,0,0,0,0],[0.75,0,0,0,0],[0.75,1,0,0,0],[1,0,0,0,0],[1,0.25,0,0,0],[1,0.5,0,0,0],[1,0.75,0,0,0],[1,1,0,0,0]];" parent="FM-86OKw0KhcrfEcP8aE-7" vertex="1">
          <mxGeometry width="190" height="88.5" as="geometry" />
        </mxCell>
        <mxCell id="NFOtpFjD8nfBpZQESPc6-33" value="&lt;font style=&quot;font-size: 18px&quot;&gt;DFU Servicer&lt;/font&gt;" style="text;html=1;strokeColor=none;fillColor=none;align=center;verticalAlign=middle;whiteSpace=wrap;rounded=0;" parent="FM-86OKw0KhcrfEcP8aE-7" vertex="1">
          <mxGeometry x="10" y="5.5" width="110" height="20" as="geometry" />
        </mxCell>
        <mxCell id="FM-86OKw0KhcrfEcP8aE-10" value="" style="shape=cylinder3;whiteSpace=wrap;html=1;boundedLbl=1;backgroundOutline=1;size=4;fillColor=#dae8fc;strokeColor=#6c8ebf;gradientColor=#7ea6e0;" parent="1" vertex="1">
          <mxGeometry x="-1430" y="153" width="20" height="40" as="geometry" />
        </mxCell>
        <mxCell id="66hQxM4kzo0PsSGk35En-1" value="" style="group" parent="1" vertex="1" connectable="0">
          <mxGeometry x="-1330" y="560" width="349" height="370" as="geometry" />
        </mxCell>
        <mxCell id="NFOtpFjD8nfBpZQESPc6-91" value="" style="group" parent="66hQxM4kzo0PsSGk35En-1" vertex="1" connectable="0">
          <mxGeometry width="349" height="370" as="geometry" />
        </mxCell>
        <mxCell id="NFOtpFjD8nfBpZQESPc6-34" value="" style="group;fillColor=#eeeeee;strokeColor=#36393d;container=0;" parent="NFOtpFjD8nfBpZQESPc6-91" vertex="1" connectable="0">
          <mxGeometry width="344" height="210" as="geometry" />
        </mxCell>
        <mxCell id="NFOtpFjD8nfBpZQESPc6-52" value="&lt;font style=&quot;font-size: 18px&quot;&gt;RTOS task using a&lt;br&gt;dedicated logical core&lt;/font&gt;" style="text;html=1;align=left;verticalAlign=middle;resizable=0;points=[];autosize=1;strokeColor=none;fillColor=none;" parent="NFOtpFjD8nfBpZQESPc6-91" vertex="1">
          <mxGeometry x="102.08823529411768" y="18.68301886792453" width="190" height="40" as="geometry" />
        </mxCell>
        <mxCell id="NFOtpFjD8nfBpZQESPc6-53" value="" style="rounded=0;whiteSpace=wrap;html=1;" parent="NFOtpFjD8nfBpZQESPc6-91" vertex="1">
          <mxGeometry x="19.35294117647061" y="109.9495283018868" width="77.41176470588235" height="37.64150943396226" as="geometry" />
        </mxCell>
        <mxCell id="NFOtpFjD8nfBpZQESPc6-55" value="" style="shape=cylinder3;whiteSpace=wrap;html=1;boundedLbl=1;backgroundOutline=1;size=9;direction=south;fillColor=#dae8fc;gradientColor=#7ea6e0;strokeColor=#6c8ebf;" parent="NFOtpFjD8nfBpZQESPc6-91" vertex="1">
          <mxGeometry x="19.35294117647061" y="71.86226415094339" width="67.73529411764706" height="18.82075471698113" as="geometry" />
        </mxCell>
        <mxCell id="NFOtpFjD8nfBpZQESPc6-58" value="" style="rounded=0;whiteSpace=wrap;html=1;fillColor=#e6d0de;gradientColor=#d5739d;strokeColor=#996185;" parent="NFOtpFjD8nfBpZQESPc6-91" vertex="1">
          <mxGeometry x="24.19117647058829" y="23.68301886792453" width="58.05882352941177" height="29.71698113207547" as="geometry" />
        </mxCell>
        <mxCell id="NFOtpFjD8nfBpZQESPc6-60" value="&lt;font style=&quot;font-size: 18px&quot;&gt;RTOS message queue&lt;/font&gt;" style="text;html=1;align=left;verticalAlign=middle;resizable=0;points=[];autosize=1;strokeColor=none;fillColor=none;" parent="NFOtpFjD8nfBpZQESPc6-91" vertex="1">
          <mxGeometry x="102.08823529411757" y="71.41415094339622" width="200" height="20" as="geometry" />
        </mxCell>
        <mxCell id="NFOtpFjD8nfBpZQESPc6-63" value="&lt;font style=&quot;font-size: 18px&quot;&gt;RTOS task&lt;/font&gt;" style="text;html=1;align=center;verticalAlign=middle;resizable=0;points=[];autosize=1;strokeColor=none;fillColor=none;" parent="NFOtpFjD8nfBpZQESPc6-91" vertex="1">
          <mxGeometry x="102.08823529411768" y="117.92122641509434" width="100" height="20" as="geometry" />
        </mxCell>
        <mxCell id="yaodnQdqzUjTpQzlxmVF-1" value="" style="group" vertex="1" connectable="0" parent="1">
          <mxGeometry x="-1580" y="388" width="190" height="88.5" as="geometry" />
        </mxCell>
        <mxCell id="yaodnQdqzUjTpQzlxmVF-2" value="" style="whiteSpace=wrap;html=1;rounded=0;points=[[0,0,0,0,0],[0,0.25,0,0,0],[0,0.5,0,0,0],[0,0.75,0,0,0],[0,1,0,0,0],[0.25,0,0,0,0],[0.25,1,0,0,0],[0.38,1,0,0,0],[0.5,0,0,0,0],[0.75,0,0,0,0],[0.75,1,0,0,0],[1,0,0,0,0],[1,0.25,0,0,0],[1,0.5,0,0,0],[1,0.75,0,0,0],[1,1,0,0,0]];" vertex="1" parent="yaodnQdqzUjTpQzlxmVF-1">
          <mxGeometry y="1" width="190" height="88.5" as="geometry" />
        </mxCell>
        <mxCell id="yaodnQdqzUjTpQzlxmVF-3" value="&lt;font style=&quot;font-size: 18px&quot;&gt;DFU State Machine&lt;/font&gt;" style="text;html=1;strokeColor=none;fillColor=none;align=center;verticalAlign=middle;whiteSpace=wrap;rounded=0;" vertex="1" parent="yaodnQdqzUjTpQzlxmVF-1">
          <mxGeometry x="10" y="5.5" width="160" height="34.5" as="geometry" />
        </mxCell>
        <mxCell id="yaodnQdqzUjTpQzlxmVF-4" value="" style="edgeStyle=orthogonalEdgeStyle;rounded=0;orthogonalLoop=1;jettySize=auto;html=1;startArrow=none;startFill=0;endArrow=classic;endFill=1;entryX=0.5;entryY=0;entryDx=0;entryDy=0;entryPerimeter=0;" edge="1" parent="1">
          <mxGeometry relative="1" as="geometry">
            <mxPoint x="-1485" y="389" as="targetPoint" />
            <mxPoint x="-1485" y="330" as="sourcePoint" />
          </mxGeometry>
        </mxCell>
        <mxCell id="yaodnQdqzUjTpQzlxmVF-6" value="" style="edgeStyle=orthogonalEdgeStyle;rounded=0;orthogonalLoop=1;jettySize=auto;html=1;startArrow=classic;startFill=1;endArrow=none;endFill=0;entryX=0.5;entryY=0;entryDx=0;entryDy=0;entryPerimeter=0;" edge="1" parent="1">
          <mxGeometry relative="1" as="geometry">
            <mxPoint x="-1422" y="389" as="targetPoint" />
            <mxPoint x="-1422" y="330" as="sourcePoint" />
          </mxGeometry>
        </mxCell>
      </root>
    </mxGraphModel>
  </diagram>
</mxfile>
